# xmcd
#
# Track frame offsets:
#	150
#	2062
#	21927
#	44987
#	75830
#	99430
#	121422
#	141395
#	158152
#	181090
#	204437
#	226865
#	250862
#	264780
#	298427
#	321832
#
# Disc length: 4623 seconds
#
# Revision: 2
# Processed by: cddbd v1.5.2PL0 Copyright (c) Steve Scherf et al.
# Submitted via: audiograbber 1.83.01
#
DISCID=d7120d10
DTITLE=Franklin, Kirk - The fight of my life
DYEAR=2007
DGENRE=Gospel
TTITLE0=Intro
TTITLE1=Declaration (This is it!)
TTITLE2=Little boy (feat. Rance Allen and Isaac Carree)
TTITLE3=Help me believe
TTITLE4=Hide me
TTITLE5=How it used to be
TTITLE6=He will supply
TTITLE7=Jesus!
TTITLE8=I am God (feat. tobyMac)
TTITLE9=It would take all day
TTITLE10=A whole nation (feat. Donovan Owens)
TTITLE11=Still in love
TTITLE12=I like me (feat. Da' T.R.U.T.H.)
TTITLE13=Chains
TTITLE14=Still (in control) (feat. Doug Williams and  Melvin Williams)
TTITLE15=The last Jesus
EXTD=
EXTT0=
EXTT1=
EXTT2=
EXTT3=
EXTT4=
EXTT5=
EXTT6=
EXTT7=
EXTT8=
EXTT9=
EXTT10=
EXTT11=
EXTT12=
EXTT13=
EXTT14=
EXTT15=
PLAYORDER=
